<svg width="40" height="40" viewBox="0 0 40 40" fill="none" xmlns="http://www.w3.org/2000/svg">
<g clip-path="url(#clip0_640_27049)">
<path d="M20.0002 39.8351C30.9548 39.8351 39.8353 30.9546 39.8353 19.9999C39.8353 9.04529 30.9548 0.164795 20.0002 0.164795C9.04554 0.164795 0.165039 9.04529 0.165039 19.9999C0.165039 30.9546 9.04554 39.8351 20.0002 39.8351Z" fill="#FFDE2C"/>
<path d="M11.4163 13.7445C11.491 13.7447 11.5625 13.7745 11.6152 13.8274C11.668 13.8803 11.6976 13.9519 11.6976 14.0265V14.0312L11.3851 16.7656C11.3851 16.8403 11.4147 16.9119 11.4674 16.9648C11.5201 17.0176 11.5916 17.0474 11.6663 17.0476H12.1538C12.1908 17.0476 12.2275 17.0403 12.2617 17.0262C12.296 17.012 12.327 16.9912 12.3532 16.965C12.3794 16.9388 12.4002 16.9077 12.4144 16.8735C12.4285 16.8393 12.4358 16.8026 12.4358 16.7656V14.0312C12.4358 13.9566 12.4654 13.8849 12.5182 13.8321C12.5709 13.7792 12.6424 13.7494 12.7171 13.7492H13.4577C13.5325 13.7492 13.6043 13.7789 13.6571 13.8318C13.71 13.8847 13.7397 13.9564 13.7397 14.0312V21.3648C13.7381 21.438 13.7081 21.5077 13.6561 21.5591C13.604 21.6106 13.534 21.6398 13.4608 21.6406H12.7202C12.6456 21.6404 12.574 21.6106 12.5213 21.5577C12.4686 21.5049 12.439 21.4332 12.439 21.3586V18.6242C12.439 18.5872 12.4317 18.5505 12.4175 18.5163C12.4033 18.482 12.3825 18.451 12.3564 18.4248C12.3302 18.3986 12.2991 18.3778 12.2649 18.3636C12.2306 18.3495 12.194 18.3422 12.1569 18.3422H11.5147C11.4401 18.3424 11.3685 18.3722 11.3158 18.425C11.2631 18.4779 11.2335 18.5495 11.2335 18.6242L10.921 21.3586V21.3633C10.921 21.4381 10.8913 21.5098 10.8384 21.5627C10.7855 21.6156 10.7138 21.6453 10.639 21.6453H9.74834C9.67354 21.6453 9.60181 21.6156 9.54891 21.5627C9.49602 21.5098 9.46631 21.4381 9.46631 21.3633V21.3586L10.4733 14.0344V14.0297C10.4733 13.9549 10.5031 13.8831 10.5559 13.8302C10.6088 13.7773 10.6806 13.7476 10.7554 13.7476H11.414L11.4163 13.7445Z" fill="#253238"/>
<path d="M17.7342 14.2625C17.8997 14.4225 18.0306 14.6147 18.119 14.8273C18.2074 15.0398 18.2514 15.2682 18.2483 15.4984V19.8922C18.2468 20.3558 18.062 20.8001 17.7341 21.128C17.4062 21.4559 16.962 21.6407 16.4983 21.6422C16.0346 21.6409 15.5903 21.4561 15.2625 21.1282C14.9347 20.8002 14.7501 20.3558 14.749 19.8922V15.4984C14.7472 15.1517 14.8486 14.8123 15.0405 14.5235C15.2323 14.2348 15.5059 14.0097 15.8262 13.8771C16.1465 13.7444 16.4991 13.7103 16.839 13.7789C17.1788 13.8476 17.4905 14.0159 17.7342 14.2625ZM16.1803 15.1804C16.1379 15.2217 16.1044 15.2712 16.0819 15.3259C16.0593 15.3806 16.0481 15.4393 16.049 15.4984V19.8922C16.0482 19.9514 16.0593 20.0102 16.0819 20.065C16.1045 20.1198 16.1379 20.1695 16.1803 20.2109C16.2219 20.2528 16.2715 20.2859 16.3261 20.3085C16.3807 20.331 16.4392 20.3425 16.4983 20.3422C16.6155 20.3407 16.7276 20.2936 16.8108 20.2109C16.8531 20.1695 16.8866 20.1198 16.9092 20.065C16.9317 20.0102 16.9429 19.9514 16.942 19.8922V15.4984C16.9429 15.4393 16.9318 15.3806 16.9092 15.3259C16.8866 15.2712 16.8531 15.2217 16.8108 15.1804C16.7703 15.1385 16.7217 15.1053 16.668 15.0827C16.6143 15.0601 16.5565 15.0487 16.4983 15.0492C16.4386 15.0478 16.3793 15.0588 16.3241 15.0814C16.2688 15.104 16.2188 15.1377 16.1772 15.1804H16.1803Z" fill="#253238"/>
<path d="M19.5899 13.7445H20.2587C20.3307 13.7442 20.4009 13.7668 20.4593 13.8089C20.5177 13.851 20.5612 13.9105 20.5837 13.9789L21.8337 17.8242C21.856 17.8927 21.8994 17.9524 21.9577 17.9947C22.016 18.0371 22.0863 18.0598 22.1583 18.0598C22.2303 18.0598 22.3006 18.0371 22.3589 17.9947C22.4172 17.9524 22.4606 17.8927 22.4829 17.8242L23.7329 13.9797C23.7554 13.9113 23.7989 13.8518 23.8573 13.8096C23.9157 13.7675 23.9859 13.745 24.0579 13.7453H24.7267C24.8173 13.7455 24.9041 13.7817 24.9681 13.8458C25.0321 13.91 25.0681 13.9969 25.0681 14.0875V21.3008C25.0681 21.3914 25.0321 21.4783 24.9681 21.5425C24.9041 21.6066 24.8173 21.6428 24.7267 21.643H24.1103C24.0654 21.643 24.0209 21.6341 23.9794 21.6169C23.9379 21.5997 23.9003 21.5745 23.8686 21.5427C23.8369 21.5109 23.8117 21.4732 23.7946 21.4317C23.7775 21.3902 23.7687 21.3457 23.7688 21.3008V19.1062C23.7683 19.0677 23.7542 19.0306 23.729 19.0015C23.7037 18.9724 23.669 18.9532 23.6309 18.9472C23.5929 18.9412 23.5539 18.9489 23.521 18.9688C23.488 18.9888 23.4632 19.0197 23.4509 19.0562L22.6876 21.4062C22.6649 21.4745 22.6213 21.5339 22.563 21.576C22.5046 21.618 22.4345 21.6407 22.3626 21.6406H21.9532C21.8813 21.6408 21.8111 21.6182 21.7527 21.5761C21.6944 21.534 21.6508 21.4746 21.6282 21.4062L20.847 19.0101C20.8346 18.976 20.8108 18.9472 20.7796 18.9287C20.7483 18.9102 20.7116 18.9032 20.6757 18.9088C20.6399 18.9145 20.6071 18.9324 20.583 18.9596C20.559 18.9868 20.5451 19.0215 20.5438 19.0578V21.3C20.5438 21.3906 20.5079 21.4775 20.4439 21.5417C20.3799 21.6058 20.2931 21.642 20.2024 21.6422H19.586C19.4954 21.642 19.4086 21.6058 19.3446 21.5417C19.2806 21.4775 19.2446 21.3906 19.2446 21.3V14.0867C19.2446 14.0415 19.2536 13.9968 19.271 13.955C19.2884 13.9133 19.3138 13.8755 19.346 13.8436C19.3781 13.8118 19.4162 13.7867 19.458 13.7697C19.4999 13.7527 19.5447 13.7441 19.5899 13.7445Z" fill="#253238"/>
<path d="M28.7983 13.7445H28.803C28.8778 13.7445 28.9496 13.7742 29.0025 13.8271C29.0553 13.88 29.0851 13.9517 29.0851 14.0265V14.0312L29.2077 14.7648V14.7695C29.2023 14.8462 29.1677 14.918 29.1111 14.97C29.0544 15.0221 28.9799 15.0504 28.903 15.0492H27.6562C27.5816 15.0492 27.51 15.0788 27.4573 15.1316C27.4045 15.1843 27.3749 15.2559 27.3749 15.3304V16.7617C27.3749 16.8364 27.4045 16.908 27.4572 16.9608C27.51 17.0137 27.5815 17.0435 27.6562 17.0437H29.3319C29.4078 17.0459 29.4806 17.0744 29.5376 17.1245C29.5947 17.1746 29.6325 17.243 29.6444 17.3179L29.7679 18.0617C29.7677 18.1364 29.7379 18.2079 29.685 18.2606C29.6321 18.3133 29.5605 18.3429 29.4858 18.3429H27.6562C27.5815 18.3432 27.51 18.373 27.4572 18.4258C27.4045 18.4787 27.3749 18.5503 27.3749 18.625V20.0609C27.3749 20.1355 27.4045 20.207 27.4573 20.2598C27.51 20.3125 27.5816 20.3422 27.6562 20.3422H29.9132C30.0694 20.3422 30.1765 20.4586 30.1944 20.6242L30.3202 21.3554V21.3601C30.3202 21.4349 30.2905 21.5067 30.2376 21.5596C30.1847 21.6124 30.113 21.6422 30.0382 21.6422H26.3538C26.279 21.6422 26.2073 21.6124 26.1544 21.5596C26.1015 21.5067 26.0718 21.4349 26.0718 21.3601V14.0265C26.0718 13.9895 26.0791 13.9528 26.0932 13.9186C26.1074 13.8844 26.1282 13.8533 26.1544 13.8271C26.1806 13.8009 26.2117 13.7801 26.2459 13.766C26.2801 13.7518 26.3168 13.7445 26.3538 13.7445H28.7983Z" fill="#253238"/>
<path d="M13.2416 23.6562C13.0375 23.444 12.7922 23.2758 12.5206 23.162C12.2491 23.0482 11.9571 22.9912 11.6627 22.9945H9.40645C9.35919 22.9944 9.31237 23.0036 9.26868 23.0217C9.22499 23.0397 9.18528 23.0661 9.15182 23.0995C9.11837 23.1329 9.09183 23.1725 9.07372 23.2162C9.05561 23.2598 9.04629 23.3066 9.04629 23.3539V23.3594L8.81191 25.1648L7.98223 30.7172L7.71973 32.6289V32.6344C7.71973 32.7298 7.75756 32.8212 7.82494 32.8888C7.89231 32.9563 7.98372 32.9943 8.0791 32.9945L11.6596 33.0812C12.2519 33.0802 12.8197 32.8445 13.2386 32.4257C13.6576 32.0069 13.8935 31.4392 13.8947 30.8469V25.2344C13.9001 24.9406 13.8449 24.6488 13.7325 24.3773C13.6201 24.1058 13.453 23.8603 13.2416 23.6562ZM12.2314 30.8102C12.2335 30.9084 12.2123 31.0057 12.1697 31.0942C12.1271 31.1827 12.0642 31.2599 11.9861 31.3195C11.8923 31.3878 11.7788 31.4237 11.6627 31.4219L9.88066 31.3695C9.7502 31.3695 9.5627 31.3336 9.59551 31.1351L9.64473 30.7211L10.4744 25.1687L10.5166 24.9023C10.5518 24.6633 10.8104 24.6633 10.9385 24.6633H11.6627C11.7376 24.6617 11.812 24.6759 11.8811 24.705C11.9501 24.734 12.0123 24.7773 12.0635 24.832C12.1181 24.8844 12.1612 24.9476 12.1901 25.0175C12.219 25.0875 12.2331 25.1626 12.2314 25.2383V30.8102Z" fill="#253238"/>
<path d="M19.471 32.8125C19.4249 32.5965 19.4079 32.3752 19.4202 32.1547V30.25C19.426 29.7058 19.2445 29.1762 18.9062 28.75C18.8758 28.711 18.8593 28.6631 18.8593 28.6137C18.8593 28.5643 18.8758 28.5163 18.9062 28.4773C19.2447 28.0514 19.4255 27.5214 19.4179 26.9773V25.4688C19.4168 24.8133 19.156 24.1849 18.6925 23.7215C18.229 23.258 17.6007 22.9971 16.9452 22.9961H15.289C15.2599 22.996 15.2311 23.0016 15.2042 23.0127C15.1774 23.0238 15.153 23.0401 15.1324 23.0606C15.1118 23.0812 15.0956 23.1056 15.0845 23.1325C15.0734 23.1593 15.0678 23.1881 15.0679 23.2172V32.8617C15.0679 32.8907 15.0736 32.9194 15.0847 32.9462C15.0958 32.973 15.1121 32.9973 15.1327 33.0178C15.1532 33.0383 15.1776 33.0545 15.2044 33.0655C15.2312 33.0765 15.26 33.0821 15.289 33.082H16.5069C16.5654 33.082 16.6216 33.0588 16.663 33.0176C16.7044 32.9763 16.7278 32.9202 16.728 32.8617V29.6633C16.7281 29.6048 16.7511 29.5487 16.7921 29.507C16.8125 29.4863 16.8368 29.4699 16.8636 29.4588C16.8905 29.4476 16.9193 29.442 16.9483 29.4422C17.0545 29.4411 17.1597 29.4617 17.2576 29.5027C17.3556 29.5437 17.4441 29.6041 17.5179 29.6805C17.5952 29.7533 17.6563 29.8416 17.6973 29.9396C17.7384 30.0375 17.7584 30.143 17.7562 30.2492V32.1531C17.7562 32.3148 17.7694 32.482 17.7843 32.6523C17.7926 32.7498 17.813 32.8459 17.8452 32.9383C17.8608 32.9805 17.8891 33.0169 17.9261 33.0425C17.9632 33.0681 18.0072 33.0816 18.0522 33.0813H19.2577C19.2907 33.0813 19.3233 33.0739 19.353 33.0595C19.3828 33.0452 19.4089 33.0243 19.4294 32.9985C19.4499 32.9726 19.4643 32.9425 19.4715 32.9103C19.4787 32.8781 19.4785 32.8446 19.471 32.8125ZM17.7522 26.9773C17.7536 27.0833 17.7332 27.1884 17.6922 27.2861C17.6512 27.3838 17.5905 27.4721 17.514 27.5453C17.4404 27.6219 17.3519 27.6826 17.2539 27.7235C17.156 27.7645 17.0506 27.785 16.9444 27.7836C16.9155 27.7836 16.8869 27.7779 16.8602 27.7668C16.8336 27.7557 16.8093 27.7395 16.7889 27.719C16.7685 27.6986 16.7524 27.6743 16.7414 27.6475C16.7304 27.6208 16.7248 27.5922 16.7249 27.5633V24.8813C16.725 24.8228 16.748 24.7667 16.789 24.725C16.8095 24.7044 16.8338 24.6881 16.8606 24.677C16.8874 24.6659 16.9162 24.6601 16.9452 24.6602C17.0514 24.6591 17.1566 24.6797 17.2545 24.7207C17.3524 24.7616 17.441 24.8221 17.5147 24.8984C17.5919 24.9714 17.653 25.0597 17.694 25.1576C17.7351 25.2556 17.7552 25.361 17.753 25.4672L17.7522 26.9773Z" fill="#253238"/>
<path d="M24.461 23.6562C24.2569 23.444 24.0116 23.2758 23.74 23.162C23.4685 23.0482 23.1765 22.9912 22.8821 22.9945C22.2898 22.9986 21.723 23.2361 21.3047 23.6554C20.8864 24.0747 20.6504 24.6421 20.6477 25.2344V30.8469C20.6434 31.1409 20.6994 31.4327 20.8122 31.7043C20.9251 31.9759 21.0925 32.2214 21.3039 32.4258C21.5074 32.6381 21.7527 32.806 22.0244 32.9188C22.296 33.0316 22.588 33.0869 22.8821 33.0812C23.4744 33.0802 24.0422 32.8445 24.4611 32.4257C24.8801 32.0069 25.116 31.4392 25.1172 30.8469V25.2344C25.1214 24.9404 25.0654 24.6488 24.9525 24.3773C24.8397 24.1059 24.6724 23.8605 24.461 23.6562ZM22.9305 30.418C22.9261 30.4269 22.9193 30.4344 22.9109 30.4396C22.9025 30.4448 22.8928 30.4476 22.8828 30.4476C22.8729 30.4476 22.8632 30.4448 22.8548 30.4396C22.8464 30.4344 22.8396 30.4269 22.8352 30.418C22.6164 30.007 21.725 28.2719 21.725 27.4773C21.725 26.5726 22.243 25.8367 22.8821 25.8367C23.5211 25.8367 24.0407 26.5703 24.0407 27.4773C24.0407 28.2719 23.1485 30.007 22.9305 30.418Z" fill="#253238"/>
<path d="M31.2166 26.2219L30.7323 23.3547L30.7057 23.1985C30.6921 23.1385 30.6578 23.0853 30.6087 23.0483C30.5597 23.0112 30.4991 22.9928 30.4377 22.9961H28.7776C28.1222 22.9976 27.4941 23.2585 27.0307 23.7219C26.5673 24.1853 26.3064 24.8134 26.3049 25.4688V27.3383C26.3004 27.6634 26.3625 27.986 26.4875 28.2862C26.6125 28.5864 26.7976 28.8577 27.0315 29.0836C27.2729 29.325 27.7916 29.5063 28.3346 29.6305C28.8372 29.7387 29.3488 29.7994 29.8627 29.8117C29.9212 29.8117 29.9773 29.8349 30.0188 29.8762C30.0602 29.9175 30.0836 29.9736 30.0838 30.0321L30.5471 32.8617C30.5471 32.9202 30.5703 32.9762 30.6116 33.0175C30.6529 33.0588 30.709 33.0821 30.7674 33.0821H30.9073L31.9182 33.0242H32.0565C32.0855 33.0243 32.1142 33.0187 32.141 33.0077C32.1678 32.9967 32.1922 32.9805 32.2128 32.96C32.2333 32.9395 32.2496 32.9152 32.2607 32.8884C32.2718 32.8616 32.2776 32.8329 32.2776 32.8039V32.6563L31.2166 26.2219ZM29.3971 28.143C29.176 28.143 28.3666 28.0649 28.2088 27.9086C28.1313 27.8359 28.07 27.7477 28.0289 27.6497C27.9879 27.5517 27.968 27.4461 27.9705 27.3399V25.4688C27.9686 25.3626 27.9888 25.2572 28.0298 25.1593C28.0708 25.0614 28.1318 24.9731 28.2088 24.9C28.2832 24.8238 28.3719 24.7631 28.4698 24.7211C28.5674 24.6812 28.6721 24.661 28.7776 24.6617C28.8987 24.6617 29.2518 24.6617 29.3182 24.9461L29.7729 27.9235C29.7729 28.1867 29.458 28.143 29.3971 28.143Z" fill="#253238"/>
<path d="M25.1322 13.3797C24.9884 13.3797 24.8505 13.3226 24.7488 13.2209C24.6472 13.1192 24.59 12.9813 24.59 12.8375C24.59 8.11953 22.2111 5.97109 20.0002 5.97109C17.7893 5.97109 15.4104 8.11953 15.4104 12.8375C15.405 12.9778 15.3455 13.1107 15.2444 13.2081C15.1432 13.3055 15.0082 13.3599 14.8678 13.3599C14.7273 13.3599 14.5924 13.3055 14.4912 13.2081C14.39 13.1107 14.3305 12.9778 14.3252 12.8375C14.3252 10.4266 14.9197 8.38984 16.0439 6.94766C17.0799 5.61953 18.4846 4.88672 20.0002 4.88672C21.5158 4.88672 22.9205 5.61875 23.9564 6.94766C25.0807 8.38984 25.6752 10.4266 25.6752 12.8375C25.674 12.9811 25.6163 13.1184 25.5148 13.2198C25.4132 13.3212 25.2758 13.3787 25.1322 13.3797Z" fill="#253238"/>
</g>
<defs>
<clipPath id="clip0_640_27049">
<rect width="40" height="40" fill="white"/>
</clipPath>
</defs>
</svg>
